<svg xmlns="http://www.w3.org/2000/svg" viewBox="0 0 32 32">
  <defs>
    <linearGradient id="grad" x1="0%" y1="0%" x2="100%" y2="100%">
      <stop offset="0%" style="stop-color:#FFA500"/>
      <stop offset="100%" style="stop-color:#FF8C00"/>
    </linearGradient>
  </defs>
  <circle cx="16" cy="16" r="16" fill="url(#grad)"/>
  <path d="M11 9l-1.5 2H7c-1 0-2 1-2 2v10c0 1 1 2 2 2h18c1 0 2-1 2-2V13c0-1-1-2-2-2h-2.5L21 9H11zm5 13c-2.5 0-4.5-2-4.5-4.5S13.5 13 16 13s4.5 2 4.5 4.5S18.5 22 16 22z" fill="white"/>
  <circle cx="16" cy="17.5" r="2.5" fill="white"/>
</svg>
